<svg preserveAspectRatio="none" overflow="visible" style="display: block;" width="38.0181" height="25.8209" viewBox="0 0 38.0181 25.8209" fill="none" xmlns="http://www.w3.org/2000/svg">
<g id="Frame 1707479750">
<path id="Vector" d="M7.30404 0.637434V1.37795L8.04753 1.41364L8.12485 2.20174H9.64454C9.88246 2.31475 9.70997 2.96604 9.76647 3.02552L10.5516 3.10284L10.5873 3.84931H12.1486V4.67309H12.9218L12.9694 3.84931H15.3516C15.3813 3.57868 15.2504 3.2218 15.4735 3.02552H20.2764V3.84931H22.6169C22.843 4.04559 22.7091 4.40246 22.7389 4.67309H25.121V3.84931H26.6823L26.718 3.10284L27.5032 3.02552C27.5626 2.96604 27.3872 2.31475 27.6251 2.20174H29.1448L29.2221 1.41364L29.9656 1.37795V0.637434H31.6072V1.37795L32.3507 1.41364L32.428 2.20174C32.4875 2.26121 33.1388 2.08575 33.2488 2.32367V3.84633H34.0696V4.67012H34.8905V6.31472H35.631L35.6667 7.06118L36.4518 7.1385V8.70281H37.2726V11.1712H35.7529C35.515 11.2842 35.6875 11.9355 35.631 11.995H34.8905V12.8158H33.2488V14.4604H32.428V17.6693H33.2488V20.1377H32.428V20.9615H29.9656V21.7852H29.2251C29.1656 21.8447 29.3411 22.496 29.1031 22.609H26.7626V23.3495H25.9418V24.1733H23.4794V24.9971H22.7389L22.727 25.6841L22.605 25.806H20.33L20.208 25.6841L20.1961 24.9971H17.814V25.8209H15.3516V24.9971H14.5308V24.1733H12.1516V23.3495H11.3308V22.609H8.99027C8.75235 22.496 8.92484 21.8447 8.86834 21.7852L8.08321 21.7079L8.04753 20.9615H5.66539V20.1377H4.84457V19.3139H4.02376V16.8455H5.66539V16.105C5.60888 16.0455 4.95461 16.221 4.84457 15.9831V14.4604H4.02376V12.8158H2.38214V11.992H1.64162C1.58214 11.9325 1.75761 11.2812 1.51969 11.1682H0V8.69983H0.820812V7.13553L1.60594 7.05821L1.64162 6.31174H2.38214V4.66715H3.20295V3.84336H4.02376V2.32069C4.13677 2.08278 4.78807 2.25527 4.84457 2.19876L4.9219 1.41066L5.66539 1.37498V0.63446H7.30701L7.30404 0.637434ZM7.30404 2.28501H5.66241V3.9296H4.8416V4.67012H4.10109V6.31472H3.28027V7.1385H2.45946V8.7831H1.63865V10.3474H2.45946V11.1712H4.10109V11.995H4.8416L4.87729 12.7414L5.66241 12.8188V14.3831H6.48322V15.2068H8.12485V14.3831H8.86536V13.6425H11.3278V14.3831H12.1486V15.2068H14.611V16.0306H15.4319V16.8544H17.811V17.6782H18.6318V18.502H21.0943V19.3258H21.9151V20.0663C21.9716 20.1258 22.6229 19.9503 22.7359 20.1882V21.7109H23.4764V22.5347H25.118V20.9704H24.2972V20.0663H26.6377C26.8637 20.2626 26.7299 20.6195 26.7597 20.8901H28.321V19.3258H27.5002V18.502H29.9626C29.9924 18.7726 29.8615 19.1295 30.0845 19.3258H31.4793L31.6013 19.2038V17.6812H30.7804V16.8574H29.9596V16.1169H28.4399C28.202 16.0039 28.3745 15.3526 28.318 15.2931L27.5329 15.2158L27.4972 14.4693H25.9359V13.6455H25.1151V12.8217H23.4734V11.9979H22.6526V11.1742H21.011V10.3504H20.2705V9.60986H18.6289V8.78608H17.8081V7.96229H16.2497V9.48496C16.1367 9.72287 15.4854 9.55038 15.4289 9.60689V10.3474H14.6081V11.992H13.7873V12.8158H10.504V11.992H9.6832V11.1682H8.86239V8.82474C8.9754 8.58682 9.6267 8.75931 9.6832 8.70281L9.76053 7.91471L10.504 7.87902V7.1385H11.3248V5.49391H10.504V4.67012H9.6832V3.9296H8.12187V3.10582H7.30106V2.28203L7.30404 2.28501ZM31.6042 2.28501H29.9626V3.10879H29.1418V3.93258H27.5834V4.67309H26.7626V5.49688H25.9418V6.32067H22.6586V5.49688H19.4556C19.4259 5.22625 19.5567 4.86937 19.3337 4.67309H16.2556V5.49688H12.9724V7.14148H12.1516V7.96526H11.3308V9.60986H10.5903V10.3028L11.3308 10.3504V11.1742H12.9724V10.3504H13.7932V9.52659H14.5308V8.00392C14.6438 7.76601 15.2951 7.9385 15.3516 7.88199V7.14148H16.1724V6.31769H17.814V7.14148H18.6348V7.88199H20.1545C20.3924 7.995 20.2199 8.6463 20.2764 8.70578L21.0616 8.7831L21.0972 9.52957H22.6169C22.8549 9.64258 22.6824 10.2939 22.7389 10.3534H23.4794V11.1742H25.121V11.9979H25.9418V12.8217H27.5834V13.6455H28.4043V14.386H29.9626V15.2098H30.7358L30.7834 14.386H31.6042V12.8247L32.3894 12.7474L32.425 12.0009H33.1656V11.1801H34.8072V10.3563H35.628V8.79202H34.8072V7.14743H33.9864V6.32364H33.1656V4.67904H32.425V3.93853H31.6042V2.29393V2.28501ZM10.504 15.2812H8.94269V16.0217H8.12187V16.8455H6.48025V17.6693H5.65944V18.4455L6.48025 18.4931V19.3169H7.99994C8.23786 19.2038 8.06537 18.5526 8.12187 18.4931H8.86239C8.92187 18.4366 8.74641 17.7823 8.98432 17.6723H10.504V16.8485H11.3248V16.0723L10.504 16.0247V15.2842V15.2812ZM12.9664 17.6663H11.3248V18.4901H10.504V19.3139H8.94566V20.1377H9.76647V20.8782H11.3248V20.1377H12.1456V19.3139H13.7873V18.4901H14.6081V17.6663H13.7873V16.8425H13.014L12.9664 17.6663ZM16.1278 19.3139H14.6081V20.1377H13.7873V20.9615H12.1456V21.702H12.9664V22.5258H14.5248L14.5605 21.7793L15.3456 21.702C15.4051 21.6425 15.2296 20.9912 15.4675 20.8782H16.9872L17.0646 20.0901L17.8081 20.0544V19.3139H16.9872V18.4901H16.2973L16.2378 19.1771L16.1278 19.3139ZM19.4527 20.9585H17.811V21.7823H16.9902V22.5228H15.4319V23.3466L16.1753 23.3823L16.2527 24.1704H17.814V23.3466H18.6348V22.5228H20.2764V21.699H21.0169V20.9585H20.2764V20.1347H19.5032L19.4556 20.9585H19.4527ZM21.8348 22.5198H21.0943V23.3436H20.2735V24.1644H21.8348V22.5198Z" fill="white"/>
</g>
</svg>
